<svg xmlns="http://www.w3.org/2000/svg" width="46.32" height="59.729" viewBox="0 0 46.32 59.729"><defs><style>.a{fill:#faf8ff;fillRule:evenodd;}</style></defs><path class="a" d="M58.386-363.519a25.255,25.255,0,0,0,16.68,7.082,2.5,2.5,0,0,1,2.388,2.607,2.5,2.5,0,0,1-2.607,2.388,30.1,30.1,0,0,1-21.106-9.7,2.5,2.5,0,0,1-.577-2.232c2.235-9.727,11.694-17.141,23.1-17.141s20.862,7.414,23.1,17.141a2.5,2.5,0,0,1-.577,2.232A29,29,0,0,1,89-354.086a2.5,2.5,0,0,1-3.3-1.267,2.5,2.5,0,0,1,1.267-3.3,24.18,24.18,0,0,0,7.171-4.865c-2.251-6.975-9.44-12-17.875-12S60.637-370.494,58.386-363.519Zm17.875-47.65a13.25,13.25,0,0,0-13.244,13.244,13.25,13.25,0,0,0,13.244,13.244A13.25,13.25,0,0,0,89.5-397.925,13.25,13.25,0,0,0,76.261-411.169Zm0,5a8.248,8.248,0,0,1,8.244,8.244,8.248,8.248,0,0,1-8.244,8.244,8.248,8.248,0,0,1-8.244-8.244A8.248,8.248,0,0,1,76.261-406.169Z" transform="translate(-53.101 411.169)"/></svg>